<svg xmlns="http://www.w3.org/2000/svg" viewBox="0 0 512 512">
  <defs>
    <linearGradient id="grad1" x1="0%" y1="0%" x2="0%" y2="100%">
      <stop offset="0%" style="stop-color:#22c55e;stop-opacity:1" />
      <stop offset="100%" style="stop-color:#16a34a;stop-opacity:1" />
    </linearGradient>
  </defs>
  <rect x="128" y="128" width="192" height="320" rx="24" ry="24" fill="url(#grad1)" />
  <rect x="160" y="160" width="128" height="96" rx="8" ry="8" fill="#ffffff" />
  <path d="M384 128h32c17.67 0 32 14.33 32 32v128c0 17.67-14.33 32-32 32h-16v64h16c35.35 0 64-28.65 64-64V160c0-53.02-42.98-96-96-96h-32v64z" fill="#15803d" />
  <rect x="352" y="320" width="32" height="64" rx="4" fill="#166534" />
  <circle cx="200" cy="208" r="16" fill="#e5e5e5" />
  <path d="M320 128V96c0-17.67-14.33-32-32-32H160c-17.67 0-32 14.33-32 32v32H128" fill="none" stroke="#22c55e" stroke-width="0" />
</svg>
